{"title":"High Risk[1995]DVDRip[Eng-Subbed]JetLi","uid":5915047,"size":1521811456,"categoryP":"video","categoryS":"movies","magnet":"?xt=urn:btih:099f23dbd2ded75f1d438ced668ca86ed1527966&amp;dn=High+Risk%5B1995%5DDVDRip%5BEng-Subbed%5DJetLi&amp;tr=udp%3A%2F%2Ftracker.openbittorrent.com%3A80&amp;tr=udp%3A%2F%2Fopen.demonii.com%3A1337&amp;tr=udp%3A%2F%2Ftracker.coppersurfer.tk%3A6969&amp;tr=udp%3A%2F%2Fexodus.desync.com%3A6969","seeders":4,"leechers":2,"uploader":"deffjam555","files":1,"time":1288185965,"description":"cover\n &lt;a href=&quot;\nhttp://img822.imageshack.us/img822/2628/highrisk1.jpg&quot; rel=&quot;nofollow&quot; target=&quot;_NEW&quot;&gt;\nhttp://img822.imageshack.us/img822/2628/highrisk1.jpg&lt;/a&gt;\n\n**English subtitles included**\n\nShu dan long wei (1995)\nAfter failing to save his wife from 'The Doctor', Kit Li is working as a bodyguard and secret stunt double for the cowardly martial arts film star Frankie Lane. Frankie attends an exhibition of the crown jewels of Russia at a Hong Kong hotel, and when the Doctor's gang take over the building in attempt to steal them, Kit is the only thing standing in their way. Will Frankie regain his courage? Will romance blossom between Kit and the nosy reporter? Who has the best Kung-Fu?\n\n &lt;a href=&quot;\nhttp://www.imdb.com/title/tt0114437/&quot; rel=&quot;nofollow&quot; target=&quot;_NEW&quot;&gt;\nhttp://www.imdb.com/title/tt0114437/&lt;/a&gt;\n\nGeneral Info:\nFormat : AVI\nFormat/Info : Audio Video Interleave\nFile size : 1.42 GiB\nDuration : 1h 40mn\nOverall bit rate : 2 015 Kbps\nWriting application : VirtualDubMod 1.5.4.1 (build 2178/release)\nWriting library : VirtualDubMod build 2178/release\n\nVideo\nID : 0\nFormat : MPEG-4 Visual\nFormat profile : Simple@L3\nFormat settings, BVOP : Yes\nFormat settings, QPel : No\nFormat settings, GMC : No warppoints\nFormat settings, Matrix : Custom\nCodec ID : XVID\nCodec ID/Hint : XviD\nDuration : 1h 40mn\nBit rate : 1 253 Kbps\nWidth : 672 pixels\nHeight : 368 pixels\nDisplay aspect ratio : 16:9\nFrame rate : 29.970 fps\nColor space : YUV\nChroma subsampling : 4:2:0\nBit depth : 8 bits\nScan type : Progressive\nBits/(Pixel*Frame) : 0.169\nStream size : 902 MiB (62%)\nWriting library : XviD 1.1.0 Beta2 (UTC 2005-04-04)\n\nAudio\nID : 1\nFormat : DTS\nFormat/Info : Digital Theater Systems\nCodec ID : 2001\nCodec ID/Info : Digital Theater Systems\nDuration : 1h 40mn\nBit rate mode : Constant\nBit rate : 755 Kbps\nChannel(s) : 6 channels\nChannel positions : Front: L C R, Side: L R, LFE\nSampling rate : 48.0 KHz\nBit depth : 16 bits\nStream size : 543 MiB (37%)\nAlignment : Split accross interleaves\nInterleave, duration : 96 ms (2.88 video frames)\nInterleave, preload duration : 96 ms\n\n\n\nscreens &lt;a href=&quot;\nhttp://img515.imageshack.us/img515/1297/capture016.jpg&quot; rel=&quot;nofollow&quot; target=&quot;_NEW&quot;&gt;\nhttp://img515.imageshack.us/img515/1297/capture016.jpg&lt;/a&gt; &lt;a href=&quot;\nhttp://img222.imageshack.us/img222/6200/capture029.jpg&quot; rel=&quot;nofollow&quot; target=&quot;_NEW&quot;&gt;\nhttp://img222.imageshack.us/img222/6200/capture029.jpg&lt;/a&gt; &lt;a href=&quot;\nhttp://img827.imageshack.us/img827/8101/capture035g.jpg&quot; rel=&quot;nofollow&quot; target=&quot;_NEW&quot;&gt;\nhttp://img827.imageshack.us/img827/8101/capture035g.jpg&lt;/a&gt; &lt;a href=&quot;\nhttp://img841.imageshack.us/img841/6195/capture042.jpg&quot; rel=&quot;nofollow&quot; target=&quot;_NEW&quot;&gt;\nhttp://img841.imageshack.us/img841/6195/capture042.jpg&lt;/a&gt;\n","torrent":{"xt":"urn:btih:099f23dbd2ded75f1d438ced668ca86ed1527966","amp;dn":"High+Risk%5B1995%5DDVDRip%5BEng-Subbed%5DJetLi","amp;tr":["udp%3A%2F%2Ftracker.openbittorrent.com%3A80","udp%3A%2F%2Fopen.demonii.com%3A1337","udp%3A%2F%2Ftracker.coppersurfer.tk%3A6969","udp%3A%2F%2Fexodus.desync.com%3A6969"],"infoHash":"099f23dbd2ded75f1d438ced668ca86ed1527966","infoHashBuffer":{"type":"Buffer","data":[9,159,35,219,210,222,215,95,29,67,140,237,102,140,168,110,209,82,121,102]},"announce":[],"urlList":[]}}